<svg xmlns="http://www.w3.org/2000/svg" width="10" height="19" viewBox="0 0 10 19">
    <path fill="#DDDFE6" d="M9.913 12.564c0 1.082-.352 2.013-1.057 2.794-.705.781-1.62 1.263-2.747 1.447v1.856c0 .099-.031.18-.095.244-.064.063-.145.095-.245.095H4.335c-.092 0-.172-.034-.239-.1-.067-.068-.1-.147-.1-.24v-1.855c-.468-.063-.92-.173-1.355-.328-.436-.156-.796-.313-1.079-.472-.283-.16-.545-.329-.786-.51-.24-.18-.406-.312-.494-.397-.089-.085-.15-.148-.186-.19-.12-.15-.128-.294-.021-.435l1.094-1.432c.05-.07.131-.113.244-.127.107-.014.192.018.255.095l.022.022c.8.7 1.66 1.141 2.581 1.325.262.057.525.085.787.085.573 0 1.078-.152 1.514-.456.435-.304.653-.735.653-1.294 0-.198-.053-.385-.16-.562-.106-.176-.224-.325-.355-.445-.131-.12-.338-.253-.622-.397-.283-.145-.517-.258-.701-.34-.184-.081-.467-.196-.85-.344-.276-.113-.494-.202-.653-.265-.16-.064-.378-.158-.654-.281-.276-.124-.497-.234-.664-.329-.166-.095-.366-.22-.6-.376-.234-.156-.423-.306-.569-.451-.145-.145-.299-.318-.462-.52-.163-.201-.288-.406-.377-.615-.088-.208-.163-.443-.223-.705-.06-.261-.09-.537-.09-.827 0-.975.347-1.83 1.04-2.565.695-.736 1.598-1.21 2.71-1.421V.339c0-.092.034-.171.101-.238.067-.067.147-.101.24-.101h1.433c.1 0 .181.032.245.095.064.064.095.145.095.244v1.866c.404.043.796.124 1.174.244.38.12.688.239.925.355.237.117.462.25.674.398.213.148.351.25.415.307.064.057.117.107.16.149.12.127.137.261.052.403l-.86 1.548c-.057.106-.138.162-.245.17-.099.02-.194-.004-.287-.075-.02-.021-.072-.063-.154-.127-.081-.064-.22-.157-.414-.281-.195-.124-.402-.237-.621-.34-.22-.102-.484-.194-.792-.275-.308-.081-.61-.122-.908-.122-.673 0-1.222.152-1.647.456-.425.304-.638.696-.638 1.177 0 .184.03.353.09.509.06.155.165.302.314.44s.289.254.42.35c.13.095.33.205.595.328.265.124.48.22.642.287.163.067.411.164.744.291.376.142.662.253.86.334.2.082.468.205.808.371.34.167.608.317.802.451.195.134.415.311.66.53.244.22.431.444.562.673.131.23.243.5.335.812.092.31.138.643.138.996z"/>
</svg>
