<svg xmlns="http://www.w3.org/2000/svg" width="23" height="23" viewBox="0 0 23 23">
    <path fill="#F92A82" d="M16 9.5c0-1.79-.636-3.32-1.908-4.592C12.82 3.636 11.29 3 9.5 3c-1.79 0-3.32.636-4.592 1.908C3.636 6.18 3 7.71 3 9.5c0 1.79.636 3.32 1.908 4.592C6.18 15.364 7.71 16 9.5 16c1.79 0 3.32-.636 4.592-1.908C15.364 12.82 16 11.29 16 9.5zm7 11.73c0 .48-.175.895-.525 1.245-.35.35-.765.525-1.244.525-.498 0-.912-.175-1.244-.525l-4.741-4.727c-1.65 1.142-3.488 1.714-5.515 1.714-1.318 0-2.578-.256-3.78-.768-1.203-.511-2.24-1.202-3.11-2.073-.871-.87-1.562-1.907-2.074-3.11C.256 12.31 0 11.048 0 9.731c0-1.318.256-2.578.767-3.78C1.28 4.747 1.97 3.71 2.84 2.84 3.711 1.97 4.748 1.278 5.95.766 7.153.256 8.413 0 9.73 0c1.318 0 2.579.256 3.781.767 1.203.512 2.24 1.203 3.11 2.073.87.871 1.562 1.908 2.073 3.11.512 1.203.768 2.463.768 3.78 0 2.028-.572 3.866-1.714 5.516l4.74 4.74c.342.342.512.756.512 1.245z"/>
</svg>
