<svg xmlns="http://www.w3.org/2000/svg" width="25" height="19" viewBox="0 0 25 19">
    <path fill="#DDDFE6" d="M25 17.417V19H0V0h1.563v17.417H25zM23 2.405v5.511c0 .178-.08.302-.241.374-.161.072-.308.04-.44-.095l-1.498-1.533-7.838 8.02c-.083.084-.178.126-.285.126-.107 0-.202-.042-.285-.126L9.528 11.73 4.378 17 2 14.568l7.244-7.412c.082-.084.177-.126.284-.126.108 0 .203.042.285.126l2.885 2.952 5.745-5.878-1.498-1.533c-.132-.135-.163-.285-.093-.45.07-.165.192-.247.366-.247h5.386c.115 0 .21.038.285.114.074.076.111.173.111.291z"/>
</svg>
