<svg xmlns="http://www.w3.org/2000/svg" width="143" height="30" viewBox="0 0 143 30">
    <path fill="#F92A82" d="M12.5 30c4.167 0 6.25-1.851 6.25-5.553v-4.299c0-1.254-.142-2.247-.425-2.978-.284-.731-.822-1.276-1.616-1.635 1.36-.776 2.041-2.463 2.041-5.06V6.803c0-3.702-2.083-5.553-6.25-5.553H0V30h12.5zm-2.216-17.5H7.5V6.25h2.784c.644 0 .966.31.966.93v4.39c0 .62-.322.93-.966.93zm0 12.5H7.5v-6.25h2.784c.644 0 .966.308.966.923v4.404c0 .615-.322.923-.966.923zm24.544 5V17.143c0-2.024.905-3.036 2.715-3.036H40V7.5h-.647c-1.264 0-2.298.327-3.103.982-.805.655-1.322 1.548-1.552 2.679V7.723H27.5V30h7.328zM53.75 5V0h-7.5v5h7.5zm0 25V7.5h-7.5V30h7.5zm18.707 0v-5.496H70.85c-.724 0-1.085-.323-1.085-.968v-9.98H72.5V8.058h-2.734V3.75h-7.379v4.309H60v5.496h2.387v10.993c0 3.635 2.127 5.452 6.38 5.452h3.69zm17.5 0v-5.496H88.35c-.724 0-1.085-.323-1.085-.968v-9.98H90V8.058h-2.734V3.75h-7.379v4.309H77.5v5.496h2.387v10.993c0 3.635 2.127 5.452 6.38 5.452h3.69zm18.86 0c4.122 0 6.183-1.864 6.183-5.591v-2.03h-6.773v1.263c0 .722-.35 1.082-1.052 1.082h-1.85c-.702 0-1.052-.33-1.052-.992v-2.975H115V13.09c0-3.727-2.061-5.591-6.184-5.591h-5.132c-4.123 0-6.184 1.864-6.184 5.591V24.41c0 3.727 2.061 5.591 6.184 5.591h5.132zM107.5 17.5h-3.75v-2.78c0-.646.332-.97.997-.97h1.756c.665 0 .997.324.997.97v2.78zM129.063 30V19.79h.49L134.108 30h8.393l-5.268-10.524c2.56-.657 3.84-2.403 3.84-5.24V6.804c0-3.702-2.188-5.553-6.563-5.553H121.25V30h7.813zm3.69-16.25H130v-7.5h2.753c.665 0 .997.324.997.97v5.56c0 .646-.332.97-.997.97z"/>
</svg>
