<svg xmlns="http://www.w3.org/2000/svg" width="16" height="17" viewBox="0 0 16 17">
    <g fill="none">
        <path fill="#CE893D" d="M14 11.303c1.294-1.235 1.997-2.747 2-4.303v1.73c-.004 1.542-.695 3.041-1.968 4.27v-1.677l-.032-.02z"/>
        <path fill="#E6A71E" d="M15 11.025v2.12c-.566.698-1.232 1.322-1.98 1.855v-2.153l-.02-.022c.742-.525 1.404-1.139 1.968-1.825l.032.025z"/>
        <path fill="#FFCB5A" d="M8 0c4.417 0 8 3.358 8 7.5-.003 1.558-.513 3.07-1.451 4.307-.408.543-.885 1.03-1.42 1.445-.439.348-.913.647-1.415.891-.547.27-1.122.478-1.714.62-1.315.316-2.685.316-4 0-.592-.142-1.167-.35-1.714-.62-.502-.244-.976-.543-1.415-.891-.535-.416-1.012-.902-1.42-1.445C.513 10.57.003 9.057 0 7.5 0 3.358 3.583 0 8 0z"/>
        <path fill="#CE893D" d="M13 13.02v1.953c-.618.4-1.287.745-1.996 1.027L11 15.993v-1.972c.703-.28 1.366-.623 1.98-1.021l.02.02z"/>
        <path fill="#E6A71E" d="M11.997 16.2l.003.008c-.634.344-1.3.61-1.987.792L10 16.937v-2.144c.69-.183 1.36-.449 1.997-.793v2.2z"/>
        <path fill="#CE893D" d="M10 16.757c-.655.162-1.326.243-2 .243v-1.76c.67.002 1.337-.079 1.989-.24v1.707l.011.05z"/>
        <path fill="#E6A71E" d="M8 15.24V17c-.674 0-1.345-.081-2-.243l.011-.05V15c.652.161 1.32.242 1.989.24z"/>
        <path fill="#CE893D" d="M6 14.793v2.144L5.987 17c-.687-.182-1.353-.448-1.987-.792l.003-.008V14c.638.344 1.307.61 1.997.793z"/>
        <path fill="#E6A71E" d="M3.02 13c.614.398 1.277.74 1.98 1.02v1.973L4.996 16c-.708-.283-1.377-.627-1.996-1.027V13.02l.02-.02z"/>
        <path fill="#CE893D" d="M1.032 11c.564.686 1.226 1.3 1.968 1.825l-.02.022V15c-.748-.533-1.414-1.157-1.98-1.854v-2.12L1.032 11z"/>
        <path fill="#E6A71E" d="M0 7c.003 1.556.706 3.068 2 4.303l-.032.02V13C.695 11.771.004 10.272 0 8.73V7zM14 8c0-3.314-2.686-6-6-6S2 4.686 2 8s2.686 6 6 6 6-2.686 6-6z"/>
        <g fill="#FFCB5A">
            <path d="M9.478 8.45l-.395-.43c.338-.32.624-.692.849-1.103l.507.283c-.253.466-.578.888-.96 1.25z" transform="translate(3 3)"/>
            <path d="M5.5 10C2.467 10 0 7.757 0 5s2.467-5 5.5-5S11 2.243 11 5h-.579C10.421 2.567 8.214.588 5.5.588 2.786.588.579 2.568.579 5c0 2.433 2.207 4.412 4.921 4.412.966.005 1.915-.256 2.746-.754l.297.506c-.922.552-1.973.84-3.043.836z" transform="translate(3 3)"/>
        </g>
    </g>
</svg>
